<svg width="71" height="70" viewBox="0 0 71 70" fill="none" xmlns="http://www.w3.org/2000/svg">
<path fill-rule="evenodd" clip-rule="evenodd" d="M36.1826 2.05396L35.8599 1.87337C32.7169 0.187864 28.9131 0.248061 25.8173 2.05396L4.80535 14.3109L4.52037 14.484C1.80178 16.2015 0.1427 19.1975 0.1427 22.4286C0.1427 25.7711 1.91817 28.862 4.80535 30.5462L40.2017 51.1935L40.2018 51.1935C40.6934 51.4802 40.9392 51.6236 41.2095 51.6236C41.4799 51.6236 41.7257 51.4802 42.2173 51.1934L46.5323 48.676C47.1913 48.2916 47.5207 48.0994 47.5207 47.8122C47.5207 47.525 47.1912 47.3328 46.5323 46.9485L8.26047 24.6232L8.09788 24.5199C7.4138 24.0481 6.99996 23.2677 6.99996 22.4286C6.99996 21.5249 7.47992 20.6893 8.26047 20.234L29.2724 7.97702L29.4891 7.86078C30.5148 7.35706 31.7312 7.39581 32.7275 7.97702L53.299 19.977L53.4916 20.0981C54.4307 20.7328 55 21.7953 55 22.9385V47.0615L54.9924 47.2889C54.9174 48.4198 54.2864 49.447 53.299 50.023L32.7275 62.023L32.5108 62.1392C31.4851 62.6429 30.2688 62.6042 29.2724 62.023L8.70097 50.023L8.50828 49.9019C7.56922 49.2672 6.99996 48.2047 6.99996 47.0615L6.99986 38.2667C6.99985 37.706 6.99985 37.4256 6.86699 37.1943C6.73413 36.963 6.49195 36.8217 6.0076 36.5392L1.64657 33.9952C0.978617 33.6056 0.644639 33.4108 0.39367 33.5549C0.1427 33.6991 0.1427 34.0857 0.1427 34.859V47.0615L0.148482 47.4036C0.265443 50.9297 2.18465 54.1603 5.24585 55.946L25.8173 67.946L26.14 68.1266C29.283 69.8121 33.0868 69.7519 36.1826 67.946L56.7541 55.946L57.0467 55.7688C60.0336 53.891 61.8571 50.6054 61.8571 47.0615V22.9385L61.8514 22.5964C61.7345 19.0703 59.8153 15.8397 56.7541 14.054L36.1826 2.05396ZM63.8907 57.2316C63.6203 57.2316 63.3745 57.375 62.8829 57.6618L58.5678 60.1793C57.9089 60.5637 57.5795 60.7559 57.5795 61.043C57.5795 61.3302 57.909 61.5224 58.5679 61.9068L69.4959 68.2818C70.1639 68.6715 70.4979 68.8663 70.7489 68.7222C70.9998 68.578 70.9998 68.1913 70.9998 67.418V62.3696C70.9998 61.8088 70.9998 61.5285 70.867 61.2971C70.7341 61.0658 70.4919 60.9246 70.0076 60.642L64.8985 57.6618C64.4069 57.375 64.161 57.2316 63.8907 57.2316Z" fill="#EC9B3E"/>
</svg>
